<?xml version="1.0" encoding="UTF-8"?>
<svg width="250px" height="172px" viewBox="0 0 250 172" version="1.1" xmlns="http://www.w3.org/2000/svg" xmlns:xlink="http://www.w3.org/1999/xlink">
    <title>编组 4@3x</title>
    <defs>
        <path d="M49.5,2.5 L201.5,2.5 C207.022847,2.5 211.5,6.9771525 211.5,12.5 L211.5,242.5 C211.5,248.022847 207.022847,252.5 201.5,252.5 L49.5,252.5 C43.9771525,252.5 39.5,248.022847 39.5,242.5 L39.5,12.5 C39.5,6.9771525 43.9771525,2.5 49.5,2.5 Z" id="path-1"></path>
        <rect id="path-3" x="0" y="-20" width="393" height="166"></rect>
    </defs>
    <g id="新门户mobile" stroke="none" stroke-width="1" fill="none" fill-rule="evenodd">
        <g id="智慧协作平台_销售部" transform="translate(-480, -275)">
            <g id="编组-4" transform="translate(480, 275)">
                <g id="编组-5" transform="translate(0, -42)">
                    <mask id="mask-2" fill="white">
                        <use xlink:href="#path-1" transform="translate(125.5, 127.5) rotate(-270) translate(-125.5, -127.5)"></use>
                    </mask>
                    <use id="矩形备份-2" fill="#FFFFFF" transform="translate(125.5, 127.5) rotate(-270) translate(-125.5, -127.5)" xlink:href="#path-1"></use>
                    <g id="charts" mask="url(#mask-2)">
                        <g transform="translate(73.5, 147) scale(1, -1) translate(-73.5, -147)translate(-123, 64)">
                            <mask id="mask-4" fill="white">
                                <use xlink:href="#path-3"></use>
                            </mask>
                            <g id="mask" stroke="none" fill="none"></g>
                            <path d="M-7,-1.9059049 L-5.05869164,3.50775598 C5.58989232,33.2031015 25.9593716,50.4815425 48.8543308,50.4815425 C62.0581228,50.4815425 75.4299837,44.7012769 87.5269018,33.4316479 C99.8471265,21.952991 113.964657,16.0400132 128.356418,16.0400132 C153.722585,16.043104 177.390866,34.2855103 191.01722,65.2960664 C201.424241,88.9857153 215.276751,101.715533 229.520254,101.715533 C243.762826,101.715533 257.613078,88.9872524 268.013701,65.3050544 C281.633488,34.2905061 305.288022,16.0546455 330.650852,16.0577361 C345.03716,16.0577361 359.159626,21.9732914 371.477924,33.449427 C383.575448,44.7224608 396.94261,50.5022192 410.148052,50.5022192 C433.039636,50.5022192 453.409764,33.2218935 464.058702,3.52840408 L466,-1.88470997 L466,205.696133 L-7,205.696133 L-7,3.84530387 L-7,-1.9059049 Z M-5,9.20730387 L-5,203.695304 L464,203.695304 L464,9.22530387 L463.868898,9.54421038 C452.611635,36.424776 432.959473,52.1650076 410.861724,52.496864 L410.148052,52.5022192 C396.411113,52.5022192 382.566498,46.5160169 370.114534,34.9127002 C358.155849,23.7715926 344.514909,18.0577361 330.65073,18.0577361 C306.149828,18.0547505 283.166865,35.772881 269.844899,66.1092401 C259.159429,90.4400342 244.713723,103.715533 229.520254,103.715533 C214.3259,103.715533 199.87802,90.4385984 189.186157,66.1005593 C175.857716,35.7679883 152.86075,18.042999 128.356296,18.0400132 C114.486894,18.0400132 100.850922,23.7512951 88.8902227,34.8949852 C76.4387577,46.4949143 62.5895048,52.4815425 48.8543308,52.4815425 C26.463363,52.4815425 6.50898431,36.6948014 -4.86897427,9.52380935 L-5,9.20730387 Z" id="snoozed" stroke="none" fill="#C8C9CC" fill-rule="nonzero" mask="url(#mask-4)"></path>
                            <path d="M122.668298,49.6187845 C131.736439,49.6187845 140.305772,57.2421091 146.614314,71.1464704 C154.336532,88.1649559 167.628026,98.0839239 181.779611,98.0839239 C189.780493,98.0839239 197.659196,94.8895276 204.573976,88.6530748 C211.924629,82.0221982 220.111993,78.5955453 228.244867,78.5955453 C242.349524,78.5955453 254.806613,88.8248146 261.242451,106.199008 C267.4093,122.843537 279.169497,132.500259 292.369518,132.500259 C299.985718,132.500259 307.706266,129.269494 314.703388,122.957531 C322.054207,116.329444 330.24401,112.903089 338.376566,112.903089 C352.484046,112.903089 364.943366,123.132758 371.381499,140.509489 C375.846424,152.560349 380.282482,164.533108 384.48668,175.879947 C385.852002,179.56485 386.428471,181.120697 386.985047,182.622851 L387.113485,182.969494 C387.478374,183.954299 387.860047,184.9844 388.47345,186.639919 C389.429007,189.218873 389.62574,189.749834 389.796928,190.211853 L389.834847,190.314193 C389.866593,190.399872 389.899326,190.488213 389.937702,190.591786 L390.43696,191.939227 L-16,191.939227 L-16,106.381901 L-15.7428852,105.694691 C-9.25296851,88.6341945 3.09767186,78.6073066 17.0623252,78.6073066 C25.1958033,78.6073066 33.3854906,82.0343898 40.7354692,88.664658 C47.6532954,94.9017554 55.5272076,98.0927448 63.5349321,98.0927448 C77.6878734,98.0927448 90.9886299,88.1693859 98.7150004,71.1492596 C105.025695,57.2426021 113.597356,49.6187845 122.668298,49.6187845 Z M122.668298,51.6187845 C114.528039,51.6187845 106.556708,58.7086565 100.536195,71.9758492 C92.5049366,89.6676013 78.531614,100.092745 63.5349321,100.092745 C55.0189684,100.092745 46.6723201,96.7101739 39.3960315,90.1498875 C32.3990736,83.8380722 24.6785257,80.6073066 17.0623252,80.6073066 C3.86354541,80.6073066 -7.89827129,90.2653589 -14.0622489,106.908442 L-14,106.740785 L-14,189.938785 L387.563,189.938785 L387.5324,189.856529 C387.35692,189.382926 387.10129,188.693004 386.701132,187.613019 L386.598045,187.334795 C384.97433,182.952537 384.97433,182.952537 382.611272,176.574818 C378.407073,165.227973 373.971012,153.255209 369.506083,141.20434 C363.33947,124.560448 351.5772,114.903089 338.376566,114.903089 C330.761159,114.903089 323.040351,118.133231 316.042859,124.44273 C308.692683,131.073176 300.502996,134.500259 292.369518,134.500259 C278.262599,134.500259 265.805393,124.271198 259.36701,106.893792 C253.202629,90.2524216 241.442594,80.5955453 228.244867,80.5955453 C220.629317,80.5955453 212.911071,83.8258584 205.913538,90.138192 C198.640425,96.6978262 190.288906,100.083924 181.779611,100.083924 C166.784127,100.083924 152.820015,89.6630054 144.793023,71.9728485 C138.774675,58.7080882 130.805631,51.6187845 122.668298,51.6187845 Z" id="overdue" stroke="none" fill="#3561F2" fill-rule="nonzero" mask="url(#mask-4)"></path>
                        </g>
                    </g>
                </g>
                <circle id="Oval-Copy-9" fill="#3561F2" cx="170" cy="57" r="8"></circle>
            </g>
        </g>
    </g>
</svg>